<svg xmlns="http://www.w3.org/2000/svg" viewBox="0 0 32 32.01">
    <title>
        person-icon
    </title>
    <g id="Layer_2" data-name="Layer 2">
        <g id="Icons_-_32px" data-name="Icons - 32px">
            <path d="M30,32H2a2,2,0,0,1-2-2V28a1,1,0,0,1,.52-.88l9.79-5.34A14.14,14.14,0,0,1,7,13V7a1,1,0,0,1,0-.17C7.71,2.75,12.22,0,16,0h0c3.78,0,8.29,2.74,9,6.83A.91.91,0,0,1,25,7v6a14.15,14.15,0,0,1-3.31,8.8l9.79,5.34A1,1,0,0,1,32,28v2A2,2,0,0,1,30,32Zm0-2v0ZM2,28.6V30H30V28.6L19.52,22.88a1,1,0,0,1-.52-.79,1,1,0,0,1,.37-.86C23,18.31,23,13.05,23,13V7.08C22.44,4.08,18.88,2,16,2S9.56,4.09,9,7.09V13c0,.05.05,5.33,3.63,8.23a1,1,0,0,1-.15,1.65Z"/>
        </g>
    </g>
</svg>
